HIERARCHY
ROOT Hips
{
	OFFSET -0.001795 -0.223333 0.028219
	CHANNELS 6 Xposition Yposition Zposition Zrotation Yrotation Xrotation 
	JOINT LeftUpLeg
	{
		OFFSET 0.069520 -0.091406 -0.006815
		CHANNELS 3 Zrotation Yrotation Xrotation
		JOINT LeftLeg
		{
			OFFSET 0.034277 -0.375199 -0.004496
			CHANNELS 3 Zrotation Yrotation Xrotation
			JOINT LeftFoot
			{
				OFFSET -0.013596 -0.397961 -0.043693
				CHANNELS 3 Zrotation Yrotation Xrotation
				JOINT LeftToe
				{
					OFFSET 0.026358 -0.055791 0.119288
					CHANNELS 3 Zrotation Yrotation Xrotation
					End Site
					{
						OFFSET 0.000000 0.000000 0.000000
					}
				}
			}
		}
	}
	JOINT RightUpLeg
	{
		OFFSET -0.067670 -0.090522 -0.004320
		CHANNELS 3 Zrotation Yrotation Xrotation
		JOINT RightLeg
		{
			OFFSET -0.038290 -0.382569 -0.008850
			CHANNELS 3 Zrotation Yrotation Xrotation
			JOINT RightFoot
			{
				OFFSET 0.015774 -0.398415 -0.042312
				CHANNELS 3 Zrotation Yrotation Xrotation
				JOINT RightToe
				{
					OFFSET -0.025372 -0.048144 0.123348
					CHANNELS 3 Zrotation Yrotation Xrotation
					End Site
					{
						OFFSET 0.000000 0.000000 0.000000
					}
				}
			}
		}
	}
	JOINT Spine
	{
		OFFSET -0.002533 0.108963 -0.026696
		CHANNELS 3 Zrotation Yrotation Xrotation
		JOINT Spine1
		{
			OFFSET 0.005487 0.135180 0.001092
			CHANNELS 3 Zrotation Yrotation Xrotation
			JOINT Spine2
			{
				OFFSET 0.001457 0.052922 0.025425
				CHANNELS 3 Zrotation Yrotation Xrotation
				JOINT Neck
				{
					OFFSET -0.002778 0.213870 -0.042857
					CHANNELS 3 Zrotation Yrotation Xrotation
					JOINT Head
					{
						OFFSET 0.005152 0.064970 0.051349
						CHANNELS 3 Zrotation Yrotation Xrotation
						End Site
						{
							OFFSET 0.000000 0.000000 0.000000
						}
					}
				}
				JOINT LeftShoulder
				{
					OFFSET 0.078845 0.121749 -0.034090
					CHANNELS 3 Zrotation Yrotation Xrotation
					JOINT LeftArm
					{
						OFFSET 0.090977 0.030469 -0.008868
						CHANNELS 3 Zrotation Yrotation Xrotation
						JOINT LeftForeArm
						{
							OFFSET 0.259612 -0.012772 -0.027456
							CHANNELS 3 Zrotation Yrotation Xrotation
							JOINT LeftHand
							{
								OFFSET 0.249234 0.008986 -0.001171
								CHANNELS 3 Zrotation Yrotation Xrotation
								End Site
								{
									OFFSET 0.000000 0.000000 0.000000
								}
							}
						}
					}
				}
				JOINT RightShoulder
				{
					OFFSET -0.081759 0.118833 -0.038615
					CHANNELS 3 Zrotation Yrotation Xrotation
					JOINT RightArm
					{
						OFFSET -0.096012 0.032551 -0.009143
						CHANNELS 3 Zrotation Yrotation Xrotation
						JOINT RightForeArm
						{
							OFFSET -0.253742 -0.013329 -0.021401
							CHANNELS 3 Zrotation Yrotation Xrotation
							JOINT RightHand
							{
								OFFSET -0.255298 0.007772 -0.005559
								CHANNELS 3 Zrotation Yrotation Xrotation
								End Site
								{
									OFFSET 0.000000 0.000000 0.000000
								}
							}
						}
					}
				}
			}
		}
	}
}
MOTION
Frames: 13
Frame Time: 0.050000
-0.042226 0.947315 0.034087 -0.839157 -4.034464 1.073356 -0.102236 0.302153 3.131164 1.637706 -0.035976 -3.201439 -2.204584 -1.459875 7.071301 0.000000 0.000000 0.000000 3.444383 -0.344356 1.853812 -1.755086 0.074014 -1.787771 4.067214 4.579949 8.060228 0.000000 0.000000 0.000000 5.453642 0.146684 -2.237220 -2.159989 1.041727 0.483977 -4.695314 6.908951 3.194913 9.283985 -3.613515 -17.433704 0.000000 0.000000 0.000000 -27.111110 -4.558911 -2.159343 -45.138842 -3.652716 -3.234238 -6.959913 -20.921516 1.831073 0.000000 0.000000 0.000000 24.596742 -4.384390 -3.212886 53.050345 -0.085918 -5.454360 6.560607 27.090814 2.730300 0.000000 0.000000 0.000000 
-0.042673 0.947385 0.033397 -0.756186 -4.296571 1.336844 -0.126938 0.291247 3.003813 1.520375 -0.010324 -3.530139 -2.131333 -1.267456 7.266657 0.000000 0.000000 0.000000 3.311850 -0.328247 1.748235 -1.670667 0.041942 -2.236161 4.232503 4.798864 8.227361 0.000000 0.000000 0.000000 5.463673 0.174318 -2.580943 -2.373561 1.148642 0.710071 -4.696414 6.622797 2.970559 9.268861 -3.740411 -16.899871 0.000000 0.000000 0.000000 -27.391407 -4.500110 -2.087970 -45.043424 -3.774888 -3.200451 -7.339986 -20.742429 1.898761 0.000000 0.000000 0.000000 24.465155 -4.144902 -3.189268 53.041270 -0.334268 -5.507170 6.630938 26.881318 2.692054 0.000000 0.000000 0.000000 
-0.042957 0.947750 0.032697 -0.734743 -4.835908 1.468163 -0.150582 0.291134 2.980381 1.447584 0.003926 -3.726092 -1.931477 -0.856362 7.492012 0.000000 0.000000 0.000000 3.294001 -0.356708 1.962861 -1.750172 0.004142 -3.029397 4.587938 5.239950 8.622116 0.000000 0.000000 0.000000 5.569473 0.182353 -2.659079 -2.555868 1.241215 0.841258 -4.733882 6.566678 2.660033 9.107963 -3.660189 -16.926336 0.000000 0.000000 0.000000 -27.644198 -4.559366 -1.980392 -45.210069 -3.928139 -3.161592 -7.468667 -20.452728 1.904916 0.000000 0.000000 0.000000 24.268725 -4.220413 -3.326809 52.928129 -0.687451 -5.590207 7.096076 26.718498 2.752047 0.000000 0.000000 0.000000 
-0.043166 0.948266 0.031851 -0.753220 -5.309112 1.693168 -0.130926 0.286707 2.931576 1.381771 0.025713 -4.086459 -1.779145 -0.498558 7.808206 0.000000 0.000000 0.000000 3.307065 -0.354709 1.914050 -1.795313 -0.021178 -3.540878 4.908105 5.599287 9.022292 0.000000 0.000000 0.000000 5.664137 0.191666 -2.768167 -2.523588 1.225780 0.788006 -4.943269 6.429338 2.498165 9.111987 -3.775241 -16.471264 0.000000 0.000000 0.000000 -28.075385 -4.616493 -1.881920 -44.882113 -4.075011 -3.093907 -7.625799 -20.126770 1.914430 0.000000 0.000000 0.000000 24.346931 -4.013370 -3.313337 52.664771 -1.080208 -5.698096 7.394182 26.889210 2.815977 0.000000 0.000000 0.000000 
-0.043305 0.948751 0.030830 -0.807330 -5.948090 1.864894 -0.255054 0.298158 2.990084 1.600558 0.027875 -4.513585 -1.531793 0.004301 8.112959 0.000000 0.000000 0.000000 3.356845 -0.336959 1.721773 -1.869070 -0.027539 -3.719317 5.268777 6.071266 9.332735 0.000000 0.000000 0.000000 5.797155 0.208108 -2.921399 -2.464384 1.204771 1.043639 -5.135334 6.318754 2.124914 9.119645 -3.809139 -16.431349 0.000000 0.000000 0.000000 -28.323517 -4.796550 -1.677554 -44.752615 -4.125707 -3.065457 -7.494408 -19.785560 1.869385 0.000000 0.000000 0.000000 23.994036 -3.791646 -3.271551 52.617308 -1.157783 -5.656624 7.790442 26.843538 2.870929 0.000000 0.000000 0.000000 
-0.043490 0.949403 0.029637 -0.779463 -6.468050 2.120577 -0.124490 0.273611 2.778577 1.240815 0.063435 -4.685971 -1.367584 0.375332 8.465379 0.000000 0.000000 0.000000 3.567798 -0.309576 1.384129 -2.358738 -0.004606 -3.829700 5.551611 6.406205 9.609894 0.000000 0.000000 0.000000 5.915752 0.232059 -3.171287 -2.477874 1.222994 1.437567 -5.382606 6.237823 1.681323 8.958370 -3.842292 -15.784795 0.000000 0.000000 0.000000 -28.692942 -4.771831 -1.657598 -44.426278 -4.109706 -3.028385 -7.346929 -19.859187 1.857065 0.000000 0.000000 0.000000 23.814195 -3.655659 -3.266742 52.419631 -1.359768 -5.656949 8.484489 27.267776 3.058593 0.000000 0.000000 0.000000 
-0.043721 0.949887 0.028238 -0.823081 -6.763830 2.100115 -0.072375 0.277430 2.825909 1.219045 0.071320 -4.826805 -1.273126 0.592548 8.686566 0.000000 0.000000 0.000000 3.624598 -0.283258 1.145546 -2.381075 0.011742 -3.548982 5.707141 6.599417 9.744882 0.000000 0.000000 0.000000 5.962806 0.215368 -2.974228 -2.295302 1.135143 1.469197 -5.632950 6.345605 1.530092 9.081248 -3.904523 -15.819970 0.000000 0.000000 0.000000 -28.974126 -5.041492 -1.536800 -44.052519 -3.987262 -3.019793 -7.304280 -19.891066 1.852321 0.000000 0.000000 0.000000 23.655600 -3.674044 -3.260928 52.179937 -1.071252 -5.497489 8.458358 27.475741 3.079224 0.000000 0.000000 0.000000 
-0.044009 0.950384 0.026747 -0.920847 -6.746770 1.962177 0.211126 0.284924 2.988904 0.968422 0.098698 -4.998897 -1.341249 0.542672 8.889501 0.000000 0.000000 0.000000 3.864507 -0.279799 1.046118 -2.563236 0.041079 -3.251529 5.717481 6.545992 9.854907 0.000000 0.000000 0.000000 6.095453 0.210608 -2.872159 -2.298346 1.141084 1.651367 -5.951420 6.215907 1.630382 9.261080 -3.938871 -16.257726 0.000000 0.000000 0.000000 -28.727168 -5.444190 -1.227534 -43.973796 -4.217146 -2.952321 -7.101715 -20.081203 1.837834 0.000000 0.000000 0.000000 23.661131 -3.481622 -3.154339 51.980229 -0.643362 -5.311970 8.550380 27.944702 3.161252 0.000000 0.000000 0.000000 
-0.044318 0.950467 0.025243 -0.899322 -6.620433 1.777073 0.443811 0.285448 3.070204 0.600178 0.126157 -4.980963 -1.437896 0.404563 8.945924 0.000000 0.000000 0.000000 3.945383 -0.285094 1.079957 -2.670610 0.057407 -3.111525 5.645814 6.432493 9.826888 0.000000 0.000000 0.000000 6.108664 0.190129 -2.635076 -2.262511 1.129684 1.963187 -6.224397 6.052816 1.386237 9.047194 -3.784467 -16.355270 0.000000 0.000000 0.000000 -28.662117 -5.734476 -1.043807 -43.560004 -4.414515 -2.834521 -6.777564 -20.285613 1.799350 0.000000 0.000000 0.000000 23.571449 -3.249033 -3.017071 52.047769 -0.530393 -5.247576 8.715363 28.719273 3.298709 0.000000 0.000000 0.000000 
-0.044521 0.950833 0.023814 -0.934516 -6.507340 1.503415 0.742238 0.299771 3.319308 0.212843 0.159419 -5.066907 -1.556633 0.260954 9.099717 0.000000 0.000000 0.000000 4.253646 -0.330186 1.352679 -3.096828 0.081241 -3.214041 5.624852 6.312680 9.955875 0.000000 0.000000 0.000000 6.031031 0.169461 -2.385987 -2.120230 1.057988 1.979802 -6.264364 5.929855 1.520402 9.201015 -3.855267 -16.529900 0.000000 0.000000 0.000000 -29.019451 -6.101991 -0.817024 -43.285103 -4.864513 -2.672194 -6.083336 -19.846946 1.647000 0.000000 0.000000 0.000000 23.745735 -3.274290 -3.064093 51.887709 0.061020 -5.000603 8.187898 28.867274 3.187758 0.000000 0.000000 0.000000 
-0.044540 0.950877 0.022581 -0.950442 -6.374698 1.200266 0.977450 0.307257 3.480149 -0.121795 0.179763 -4.923838 -1.642641 0.118157 9.081589 0.000000 0.000000 0.000000 4.471062 -0.372537 1.633673 -3.418550 0.102204 -3.251314 5.561797 6.195587 9.958696 0.000000 0.000000 0.000000 5.906849 0.154324 -2.191382 -2.161381 1.075651 1.872993 -6.119844 5.761868 1.817197 9.239586 -3.894010 -16.580034 0.000000 0.000000 0.000000 -29.461533 -6.669589 -0.417353 -42.944380 -5.335032 -2.524160 -5.713676 -19.536278 1.568810 0.000000 0.000000 0.000000 23.817409 -2.915293 -2.892414 52.081655 0.342274 -4.923130 7.812784 28.971722 3.102258 0.000000 0.000000 0.000000 
-0.044478 0.951332 0.021622 -0.721495 -6.069950 0.623989 0.809202 0.333406 3.696015 -0.190934 0.166815 -4.410900 -1.814577 -0.136405 9.132081 0.000000 0.000000 0.000000 4.747156 -0.478143 2.391820 -4.321724 0.141130 -3.618267 5.434235 5.911015 10.041061 0.000000 0.000000 0.000000 5.461110 0.109777 -1.675104 -1.893150 0.938737 1.863980 -6.003496 5.986671 1.686017 9.476708 -3.976050 -16.723848 0.000000 0.000000 0.000000 -29.766938 -6.927100 -0.439101 -43.299246 -5.605317 -2.394205 -4.954445 -19.035140 1.392829 0.000000 0.000000 0.000000 24.116550 -2.484593 -2.550967 52.365566 0.518374 -4.904832 7.152956 28.679823 2.925613 0.000000 0.000000 0.000000 
-0.044383 0.951729 0.020884 -0.512102 -5.186798 0.418110 0.783708 0.346200 3.867904 -0.383397 0.189117 -4.619770 -2.316632 -0.838730 9.389130 0.000000 0.000000 0.000000 4.804614 -0.522261 2.735857 -4.699534 0.153315 -3.869369 5.047531 5.189637 10.109985 0.000000 0.000000 0.000000 4.796269 0.087199 -1.473815 -1.546456 0.757454 1.703428 -5.954297 5.795463 1.686837 9.660616 -3.960434 -17.245113 0.000000 0.000000 0.000000 -30.229043 -7.024268 -0.529736 -43.028827 -5.844802 -2.251135 -4.928821 -18.159826 1.320909 0.000000 0.000000 0.000000 24.539147 -2.341320 -2.414191 52.495240 0.537114 -4.940641 6.889861 28.280660 2.832697 0.000000 0.000000 0.000000 
